<?xml version="1.0" encoding="UTF-8"?><svg id="uuid-d2b860cf-828c-4fde-ba03-5e036c190084" xmlns="http://www.w3.org/2000/svg" viewBox="0 0 192 192"><defs><style>.uuid-f284cb4b-7d48-49f4-a2e0-0581007f41a1{fill:#e68bd0;}.uuid-bc9f2147-63d7-48e3-95b9-a4b7af31c5f0{fill:#070603;}.uuid-4ed0452c-ef09-4736-8de5-b9b1d6fb0e03{fill:#0e0d07;}.uuid-4e1fe899-eeb2-49ed-8799-a91f5c2328a6{fill:#0e0c06;}</style></defs><rect class="uuid-f284cb4b-7d48-49f4-a2e0-0581007f41a1" width="192" height="192"/><path class="uuid-4ed0452c-ef09-4736-8de5-b9b1d6fb0e03" d="M20.97,192c-.32-45.46-.18-90.92-.05-136.38,0-.46-.21-.93-.38-1.65-1.63-.14-3.6,.24-4.78-.55-1.7-1.14-3.95-3.18-3.88-4.74,.07-1.58,2.44-3.64,4.25-4.39,1.85-.77,4.26-.21,6.43-.21,15.99,0,31.98,.02,47.98-.02,3.51,0,7.24,.08,7.32,4.66,.08,4.96-3.89,4.99-7.54,4.98-3.48-.01-6.96,0-10.89,0,0,45.96,0,91.66,.06,137.83-2.98,.47-6.01,.47-9.55,0-.51-46.19-.51-91.92-.51-137.59H30.55c0,2.04,0,3.83,0,5.63,0,44.14-.02,88.28-.03,132.42h-9.55Z"/><path class="uuid-4e1fe899-eeb2-49ed-8799-a91f5c2328a6" d="M134.97,192c-.45-45.92-.45-91.84-.45-138.3-3.77,0-7.55-.02-11.34,0-3.59,.02-7.13-.45-7-5.03,.12-4.21,3.45-4.62,6.89-4.61,17.49,.04,34.98,.04,52.47,0,3.45,0,6.72,.45,6.86,4.66,.13,4.23-3.09,4.99-6.56,4.99-.66,0-1.32,.11-2.42,.2,0,45.74,0,91.45,.05,137.62-2.98,.47-6.01,.47-9.55,0-.51-46.19-.51-91.92-.51-137.59h-18.85c0,2.04,0,3.84,0,5.63,0,44.14-.02,88.28-.03,132.42h-9.55Z"/><path class="uuid-bc9f2147-63d7-48e3-95b9-a4b7af31c5f0" d="M93.31,176.13c-15.69-2.99-24.75-13.89-24.79-29.48-.01-3.99-.25-8.04,.28-11.97,1.95-14.4,15.11-25.2,29.43-24.45,15.08,.79,26.94,12.84,27.25,27.87,.1,4.82,.36,9.73-.38,14.45-2.37,15.09-15.06,24.46-31.8,23.58m-15-40.16c-.07,4.32-.42,8.67-.15,12.97,.65,10.44,8.85,18.07,18.99,18,9.96-.06,17.94-7.55,18.73-17.76,.26-3.31,.21-6.66,.11-9.99-.32-10.29-6.88-18.03-16.16-19.22-10.36-1.32-18.52,4.43-21.52,15.99Z"/></svg>