<?xml version="1.0" encoding="UTF-8"?><svg id="uuid-c626c68d-4ccf-43ea-a0ab-c501de7c38ef" xmlns="http://www.w3.org/2000/svg" viewBox="0 0 192 192"><defs><style>.uuid-b3f08538-b60d-4a5f-86b5-e20c72f6aa6b{fill:#e68bd0;}</style></defs><rect class="uuid-b3f08538-b60d-4a5f-86b5-e20c72f6aa6b" width="192" height="192"/><path d="M115.51,113.47c7.28-2.07,14.15-4.05,21.01-6.04,1.92-.56,3.78-1.3,5.72-1.76,5.06-1.21,10.46-2.73,14.39,2.02,4.05,4.89,2.52,10.37,.02,15.5-4.86,9.98-13.13,16.61-22.43,22.08-2.57,1.51-4.34,3.37-5.6,6.05-6.03,12.79-15.85,20.19-30.25,21.01-15.84,.9-27.32-5.91-34.5-19.83-1.84-3.57-4.04-6.24-7.55-8.18-5.71-3.16-10.71-7.32-15.09-12.18-4.09-4.54-7.08-9.69-8.17-15.75-1.18-6.52,2.98-11.41,9.58-11.73,4.94-.25,9.54,1.21,14.17,2.53,12.62,3.59,25.13,7.62,38.45,7.97,6.69,.18,13.27-.39,20.24-1.67m-1.65,40.87c7.68-9.06,9.84-19.86,10.37-32.08-19.25,5.97-37.9,4.33-56.88-.75,.73,9.59,1.95,17.91,5.88,25.61,8.26,16.18,26.33,19.67,40.64,7.22M45.32,115.72c-1.34,.95-.73,2.09-.19,3.09,2.76,5.19,6.75,9.2,11.87,12.68q-.31-13.52-11.68-15.77m89.93,15.85c5.33-4.04,10.24-8.41,12.64-15.32-3.45-.43-5.73,.71-8.05,1.47-1.79,.59-4.16,.76-4.39,3.37-.31,3.43-.48,6.88-.2,10.48Z"/><path d="M101.97,80.66c-3.24-15.41,2.67-28.49,15.44-34.82,12.12-6,27.1-3.07,35.84,7.46,8.08,9.74,9.48,20.69,4.17,32.21-4.92,10.66-16.51,17.57-28.44,16.69-12.38-.91-21.08-7.4-26.09-18.78-.33-.76-.54-1.57-.93-2.76m12.69,2.08c6.43,7.97,13.54,10.51,21.8,7.8,7.35-2.41,12.9-9.61,13.21-17.12,.33-7.95-4.21-15.22-11.4-18.28-7.6-3.23-15.82-1.55-21.48,4.38-5.67,5.95-6.6,14.3-2.14,23.22Z"/><path d="M69.83,79.96c-4-.06-5.55-2.13-6.18-5.53-.99-5.36-3.98-8.05-8.5-8.13-4.46-.08-7.79,2.71-8.66,7.93-.62,3.72-2.37,6.14-6.11,5.63-4.14-.56-4.93-3.93-4.55-7.58,.99-9.5,9.27-16.65,19.22-16.64,9.96,.01,18.16,7.13,19.21,16.69,.38,3.44-.29,6.32-4.43,7.63Z"/><path d="M139.55,78.2c-3.65,4.37-7.71,6.34-12.96,4.11-4.45-1.89-6.54-5.55-6.68-10.18-.14-4.38,3.28-8.46,7.81-9.84,4.26-1.29,8.01-.04,10.81,3.13,3.26,3.69,3.67,8.02,1.01,12.77Z"/></svg>