<?xml version="1.0" encoding="UTF-8"?><svg id="uuid-b2dfb70f-43e6-4f77-8a95-301335c26aad" xmlns="http://www.w3.org/2000/svg" viewBox="0 0 192 192"><defs><style>.uuid-35a8f6a3-0fc3-4741-ab59-d3f876a67f8a{fill:#030301;}.uuid-5631c8cf-043a-4ac0-ac3c-5708f183b9a1{fill:#060503;}.uuid-39831a55-8254-47ae-a3bf-903bc180c1b1{fill:#050503;}.uuid-98454564-859f-4cce-9809-e92cef458011{fill:#e68bd0;}</style></defs><rect class="uuid-98454564-859f-4cce-9809-e92cef458011" width="192" height="192"/><path class="uuid-35a8f6a3-0fc3-4741-ab59-d3f876a67f8a" d="M114.72,143.33c1.84,2.43,3.25,2.79,5.33,.54,3.83-4.16,7.9-8.11,11.99-12.02,3.9-3.72,6.97-3.74,10.85,.02,6.21,6.03,12.35,12.14,18.4,18.33,3.15,3.22,3.23,7.04,.53,9.75-2.8,2.81-6.43,2.84-9.74-.37-4.77-4.63-9.29-9.51-15.04-15.43-4.56,5.01-8.64,9.75-12.98,14.23-5.15,5.31-7.84,5.24-12.91,.08-4.3-4.39-8.55-8.83-13.8-14.26-3.66,4.1-6.82,7.95-10.29,11.48-8.84,8.98-10.08,8.92-19.17-.19-3.39-3.4-6.74-6.83-10.6-10.75-4.83,4.99-9.26,9.68-13.82,14.24-3.77,3.78-7.51,4.19-10.48,1.38-3.18-3-2.78-6.74,1.26-10.82,5.74-5.79,11.5-11.57,17.34-17.27,4.26-4.16,7.41-4.21,11.61-.07,4.71,4.66,9.25,9.49,14.32,14.73,5.11-5.22,9.68-10.01,14.39-14.66,4.3-4.25,7.26-4.25,11.57-.1,3.72,3.58,7.33,7.27,11.25,11.17Z"/><path class="uuid-39831a55-8254-47ae-a3bf-903bc180c1b1" d="M26.68,56.23c-2.84-2.85-5.5-5.37-7.97-8.07-2.36-2.58-2.52-5.46,0-8,2.53-2.56,5.52-2.46,7.98,0,4.34,4.33,8.42,8.92,12.9,13.71,4-4.15,7.18-7.54,10.45-10.84,5.05-5.11,7.87-5.86,10.89-2.99,3.05,2.89,2.24,6.11-2.97,11.26-3.19,3.15-6.46,6.21-11.04,10.59,4.11,3.53,7.97,6.59,11.54,9.97,4.72,4.47,5.4,7.69,2.66,10.53-2.86,2.96-5.98,2.32-10.55-2.29-3.39-3.42-6.7-6.92-10.99-11.36-3.72,4.05-7.07,7.87-10.61,11.52-4.27,4.41-7.35,5.02-10.19,2.32-3-2.86-2.36-5.95,2.26-10.56,3.41-3.4,6.88-6.75,12.14-11.89-2.23-1.31-4.23-2.48-6.49-3.91Z"/><path class="uuid-5631c8cf-043a-4ac0-ac3c-5708f183b9a1" d="M175.58,48.1c-4.51,4.43-8.8,8.59-13.42,13.08,4.37,4.31,8.22,8.17,12.14,11.96,2.83,2.74,4.26,5.7,1.33,9.15-2.46,2.9-5.89,2.53-9.45-1.1-3.83-3.91-7.46-8.01-11.72-12.62-4.18,4.45-7.52,8.14-11.01,11.7-4.31,4.4-7.36,5.02-10.21,2.29-2.85-2.73-2.26-6.05,1.95-10.22,3.55-3.52,7.17-6.95,11.33-10.98-4.3-4.21-8.29-8.16-12.32-12.06-2.88-2.79-4.16-5.95-1.01-9.12,3.16-3.18,6.31-1.89,9.11,.98,3.83,3.94,7.72,7.82,12.41,12.56,3.98-4.29,7.79-8.43,11.62-12.55,2.39-2.57,5.21-3.99,8.37-1.67,3.02,2.22,3.3,5.21,.86,8.6Z"/></svg>