<?xml version="1.0" encoding="UTF-8"?><svg id="uuid-60da7764-7043-4111-ba75-e474b02b7145" xmlns="http://www.w3.org/2000/svg" viewBox="0 0 192 192"><defs><style>.uuid-104bd60e-3cf9-4670-a131-d3fcb94ba537{fill:#ffeb7a;}</style></defs><rect class="uuid-104bd60e-3cf9-4670-a131-d3fcb94ba537" width="192" height="192"/><path d="M75.39,99.73c14.38-14.3,32.58-12.74,44.18,3.5,12.69,17.78,10.81,46.23-4.02,60.88-12.12,11.98-28.5,11.49-40.05-1.19-15.04-16.51-15.19-45.39-.1-63.19m41.58,36.91c.86-11.14-.58-21.69-8.64-30.19-7.71-8.14-17.84-7.74-25.22,.7-10.59,12.11-11.04,34.75-.95,47.33,8.16,10.17,19.73,10.17,27.86-.05,3.94-4.95,5.77-10.78,6.95-17.79Z"/><path d="M142.27,83.95c-19.66,5.66-36.48-4.73-39.55-24.1-1.83-11.54,4.12-23.52,14.62-29.42,10.81-6.08,24.01-5.05,33.2,2.58,17.98,14.93,13.93,40.99-8.26,50.93m-28.92-29.58c-.11,10.34,4.71,17.33,13.76,19.98,7.58,2.22,16.53-1.17,20.87-7.91,4.16-6.45,4.11-14.78-.4-21.11-4.42-6.21-10.69-9.05-18.15-7.9-9.05,1.39-14.11,6.87-16.09,16.95Z"/><path d="M34.86,73.89c-12.18-18.39-3.9-41.28,16.5-46.51,15.67-4.02,32.1,5.71,36.01,21.32,3.99,15.91-5.31,31.99-21.11,36.07-12.62,3.27-22.88-.9-31.41-10.88m34.69-33.16c-5.28-3.57-10.9-4.63-17.06-2.51-9.42,3.24-14.83,13.33-12.08,22.76,3,10.3,12.79,16.09,22.77,13.44,7.01-1.86,11.79-6.28,13.64-13.24,2.11-7.96-.19-14.77-7.27-20.45Z"/><path d="M121.57,55.67c1.37-6.84,5.63-10.59,11.15-10.17,5.17,.39,9.42,4.55,9.82,9.61,.43,5.47-2.92,10.09-8.28,11.43-6.27,1.57-11.47-2.72-12.69-10.86Z"/><path d="M49.08,51.82c5.61-7.75,13.68-8.33,18.26-1.66,2.99,4.34,2.59,9.36-1.03,13.19-3.49,3.68-8.4,4.49-12.69,2.08-4.64-2.6-6.33-7.38-4.54-13.61Z"/></svg>