<?xml version="1.0" encoding="utf-8"?>
<svg id="svg2" viewBox="0 0 500 670" xmlns="http://www.w3.org/2000/svg">
  <desc>Source: openclipart.org/detail/209545</desc>
  <defs/>
  <path d="M 366.923 185.065 C 371.57 188.665 374.324 194.425 374.324 200.484 L 374.324 243.681 L 374.324 402.068 C 374.324 428.586 349.654 450.064 319.248 450.064 C 288.841 450.064 264.172 428.586 264.172 402.068 C 264.172 375.55 288.841 354.072 319.248 354.072 C 325.673 354.072 331.869 355.032 337.606 356.832 L 337.606 269.479 L 190.738 315.555 L 190.738 440.465 C 190.738 466.983 166.068 488.461 135.662 488.461 C 105.255 488.461 80.586 466.983 80.586 440.465 C 80.586 413.947 105.255 392.469 135.662 392.469 C 142.087 392.469 148.283 393.429 154.02 395.228 L 154.02 301.276 L 154.02 258.079 C 154.02 249.62 159.356 242.121 167.101 239.661 L 350.687 182.066 C 356.252 180.326 362.276 181.406 366.923 185.065 Z" style=""/>
  <g>
    <rect x="173.883" y="287.102" width="49.109" height="367.543" style="stroke: rgb(0, 0, 0); fill: rgb(7, 6, 6); transform-box: fill-box; transform-origin: 51.0949% 50.5521%;" transform="matrix(0.571659, -0.820491, 0.829075, 0.559339, 61.61407, -135.603406)"/>
  </g>
  <rect x="88.848" y="294.058" width="25.094" height="376.447" style="fill-rule: evenodd; paint-order: stroke markers; stroke-width: 0px; transform-origin: 101.671px 484.36px; fill: none;" transform="matrix(0.571659, -0.820491, 0.829075, 0.559339, 152.079038, -134.089484)"/>
</svg>