<?xml version="1.0" encoding="UTF-8"?><svg id="_레이어_2" xmlns="http://www.w3.org/2000/svg" viewBox="0 0 379.68 379.2"><defs><style>.cls-1{fill:#15f5ba;}.cls-2{fill:#33c198;}</style></defs><g id="Layer_1"><path class="cls-1" d="M198.25,.04c15.5,.74,30.72,3.2,45.6,7.61,30.61,9.07,57.41,24.77,79.9,47.35,30.43,30.56,49.12,67.23,54.33,110.23,7.11,58.77-9.45,110.23-49.46,153.82-29.84,32.51-67.16,51.41-110.6,58.36-6.27,1-12.65,1.37-19.46,1.62-1.12-.73-1.72-1.23-2.39-1.35-6.69-1.16-13.47-1.89-20.07-3.43-29.44-6.86-55.76-19.97-78.84-39.59-18.94-16.09-34.57-34.83-46.03-56.91-10.56-20.34-17.29-41.84-20.14-64.69-2.16-17.28-2.14-34.47,.49-51.55,3.57-23.24,11.05-45.21,22.85-65.72,14.07-24.46,32.64-44.71,55.56-61.01C133.97,17.73,160.51,6.87,189.68,2.48c2.91-.44,5.72-1.6,8.57-2.43m6.42,244.84v32.37c39.42-29.56,77.82-58.37,116.76-87.58-39.12-29.33-77.51-58.11-116.96-87.7v58.63H59.06v58.42H204.67v25.86Z"/><path class="cls-2" d="M197.83,0c-2.43,.87-5.24,2.04-8.15,2.48-29.16,4.39-55.7,15.25-79.69,32.32-22.92,16.3-41.49,36.56-55.56,61.01-11.8,20.51-19.28,42.48-22.85,65.72-2.62,17.08-2.65,34.27-.49,51.55,2.85,22.85,9.58,44.35,20.14,64.69,11.46,22.08,27.09,40.81,46.03,56.91,23.08,19.62,49.4,32.74,78.84,39.59,6.6,1.54,13.38,2.27,20.07,3.43,.67,.12,1.27,.62,1.99,1.28-89.36,4.28-170.82-55.13-191.83-141.89C-11.17,164.83,7.73,101.82,61.42,50.2,89.18,23.51,123.03,7.84,161.09,2.05c11.93-1.81,24.2-1.46,36.74-2.05Z"/></g></svg>